<?xml version="1.0" encoding="utf-8"?>
<!-- Generator: Adobe Illustrator 16.0.0, SVG Export Plug-In . SVG Version: 6.00 Build 0)  -->
<!DOCTYPE svg PUBLIC "-//W3C//DTD SVG 1.1//EN" "http://www.w3.org/Graphics/SVG/1.1/DTD/svg11.dtd">
<svg version="1.1" id="Layer_1" xmlns="http://www.w3.org/2000/svg" xmlns:xlink="http://www.w3.org/1999/xlink" x="0px" y="0px"
	 width="529.107px" height="66.78px" viewBox="0 0 529.107 66.78" enable-background="new 0 0 529.107 66.78" xml:space="preserve">
<g>
	<path fill="#91BF9E" d="M45.416,14.63h8.12v1.96l-15.232,18.2l15.232,18.2v1.96h-8.12L31.64,38.486h-9.52V54.95h-7.448V14.63h7.448
		v16.464h9.52L45.416,14.63z"/>
	<path fill="#91BF9E" d="M82.208,22.47c2.128,0,3.948,0.756,5.46,2.268c1.512,1.512,2.268,3.332,2.268,5.46V54.95H64.68
		c-2.128,0-3.948-0.756-5.46-2.268c-1.512-1.512-2.268-3.332-2.268-5.46V35.014H82.6v-4.816c0-0.261-0.131-0.392-0.392-0.392H56.952
		V22.47H82.208z M82.6,47.614v-5.208H64.288v4.816c0,0.262,0.13,0.392,0.392,0.392H82.6z"/>
	<path fill="#91BF9E" d="M102.591,22.47h18.032v7.336h-18.032c-0.262,0-0.392,0.131-0.392,0.392V54.95h-7.336V30.198
		c0-2.128,0.756-3.948,2.268-5.46C98.643,23.226,100.463,22.47,102.591,22.47z"/>
	<path fill="#91BF9E" d="M149.631,22.47c2.128,0,3.948,0.756,5.46,2.268c1.512,1.512,2.268,3.332,2.268,5.46v12.208h-25.648v4.816
		c0,0.262,0.13,0.392,0.392,0.392h25.256v7.336h-25.256c-2.128,0-3.948-0.756-5.46-2.268c-1.512-1.512-2.268-3.332-2.268-5.46
		V30.198c0-2.128,0.756-3.948,2.268-5.46c1.512-1.512,3.332-2.268,5.46-2.268H149.631z M131.711,35.014h18.312v-4.816
		c0-0.261-0.131-0.392-0.392-0.392h-17.528c-0.262,0-0.392,0.131-0.392,0.392V35.014z"/>
	<path fill="#91BF9E" d="M161.783,11.83h7.392v35.392c0,0.262,0.112,0.392,0.336,0.392h6.552v7.336h-6.552
		c-2.128,0-3.948-0.756-5.46-2.268c-1.512-1.512-2.268-3.332-2.268-5.46V11.83z"/>
	<path fill="#DF5B50" d="M206.751,45.99l18.032-31.36h8.568l-23.296,40.32h-6.664l-23.296-40.32h8.568L206.751,45.99z"/>
	<path fill="#DF5B50" d="M257.878,22.47c2.128,0,3.948,0.756,5.46,2.268c1.512,1.512,2.268,3.332,2.268,5.46v12.208h-25.648v4.816
		c0,0.262,0.13,0.392,0.392,0.392h25.256v7.336h-25.256c-2.128,0-3.948-0.756-5.46-2.268c-1.512-1.512-2.268-3.332-2.268-5.46
		V30.198c0-2.128,0.756-3.948,2.268-5.46c1.512-1.512,3.332-2.268,5.46-2.268H257.878z M239.958,35.014h18.312v-4.816
		c0-0.261-0.131-0.392-0.392-0.392h-17.528c-0.262,0-0.392,0.131-0.392,0.392V35.014z"/>
	<path fill="#DF5B50" d="M277.758,22.47h18.032v7.336h-18.032c-0.262,0-0.392,0.131-0.392,0.392V54.95h-7.336V30.198
		c0-2.128,0.756-3.948,2.268-5.46C273.81,23.226,275.63,22.47,277.758,22.47z"/>
	<path fill="#DF5B50" d="M324.966,22.47c2.091,0,3.901,0.756,5.432,2.268c1.53,1.512,2.296,3.332,2.296,5.46V54.95h-7.336V30.198
		c0-0.261-0.131-0.392-0.392-0.392h-17.528c-0.262,0-0.392,0.131-0.392,0.392V54.95h-7.336V11.83h7.336v10.64H324.966z"/>
	<path fill="#DF5B50" d="M362.206,22.47c2.128,0,3.948,0.756,5.46,2.268c1.512,1.512,2.268,3.332,2.268,5.46v12.208h-25.648v4.816
		c0,0.262,0.13,0.392,0.392,0.392h25.256v7.336h-25.256c-2.128,0-3.948-0.756-5.46-2.268c-1.512-1.512-2.268-3.332-2.268-5.46
		V30.198c0-2.128,0.756-3.948,2.268-5.46c1.512-1.512,3.332-2.268,5.46-2.268H362.206z M344.286,35.014h18.312v-4.816
		c0-0.261-0.131-0.392-0.392-0.392h-17.528c-0.262,0-0.392,0.131-0.392,0.392V35.014z"/>
	<path fill="#DF5B50" d="M374.357,11.83h7.392v35.392c0,0.262,0.112,0.392,0.336,0.392h6.552v7.336h-6.552
		c-2.128,0-3.948-0.756-5.46-2.268c-1.512-1.512-2.268-3.332-2.268-5.46V11.83z"/>
	<path fill="#DF5B50" d="M426.381,30.198v1.4h-7.336v-1.4c0-0.261-0.131-0.392-0.392-0.392h-17.528
		c-0.262,0-0.392,0.131-0.392,0.392v4.48c0,0.224,0.13,0.336,0.392,0.336h17.528c2.165,0,3.995,0.756,5.488,2.268
		c1.493,1.512,2.24,3.332,2.24,5.46v4.48c0,2.128-0.747,3.948-2.24,5.46c-1.494,1.512-3.323,2.268-5.488,2.268h-17.528
		c-2.128,0-3.948-0.756-5.46-2.268c-1.512-1.512-2.268-3.332-2.268-5.46v-1.4h7.336v1.4c0,0.262,0.13,0.392,0.392,0.392h17.528
		c0.261,0,0.392-0.13,0.392-0.392v-4.48c0-0.224-0.131-0.336-0.392-0.336h-17.528c-2.128,0-3.948-0.756-5.46-2.268
		c-1.512-1.512-2.268-3.332-2.268-5.46v-4.48c0-2.128,0.756-3.948,2.268-5.46c1.512-1.512,3.332-2.268,5.46-2.268h17.528
		c2.165,0,3.995,0.756,5.488,2.268C425.634,26.25,426.381,28.07,426.381,30.198z"/>
	<path fill="#DF5B50" d="M452.084,29.806h-12.656v17.416c0,0.262,0.13,0.392,0.392,0.392h12.264v7.336H439.82
		c-2.166,0-3.995-0.756-5.488-2.268c-1.494-1.512-2.24-3.332-2.24-5.46V11.83h7.336v10.64h12.656V29.806z"/>
	<path fill="#FFFFFF" d="M460.996,49.71v5.24h-5.24v-5.24H460.996z"/>
	<path fill="#FFFFFF" d="M482.356,31.75c1.52,0,2.82,0.54,3.9,1.62s1.62,2.38,1.62,3.9v12.16c0,1.52-0.54,2.82-1.62,3.9
		s-2.38,1.62-3.9,1.62h-18.04v-30.8h5.24v7.6H482.356z M482.636,49.43V37.27c0-0.186-0.094-0.28-0.28-0.28h-12.52
		c-0.187,0-0.28,0.094-0.28,0.28v12.16c0,0.187,0.093,0.28,0.28,0.28h12.52C482.542,49.71,482.636,49.617,482.636,49.43z"/>
	<path fill="#FFFFFF" d="M508.916,31.75c1.52,0,2.82,0.54,3.9,1.62s1.62,2.38,1.62,3.9v8.72h-18.32v3.44
		c0,0.187,0.093,0.28,0.28,0.28h18.04v5.24h-18.04c-1.52,0-2.82-0.54-3.9-1.62s-1.62-2.38-1.62-3.9V37.27c0-1.52,0.54-2.82,1.62-3.9
		s2.38-1.62,3.9-1.62H508.916z M496.115,40.71h13.08v-3.44c0-0.186-0.094-0.28-0.28-0.28h-12.52c-0.187,0-0.28,0.094-0.28,0.28
		V40.71z"/>
</g>
</svg>
